# xmcd
#
# Track frame offsets:
#	300
#	15781
#	28444
#	43614
#	59712
#	76031
#	88197
#	106767
#	118320
#	131470
#	142253
#
# Disc length: 2047 seconds
#
# Revision: 1
# Processed by: cddbd v1.5.2PL0 Copyright (c) Steve Scherf et al.
# Submitted via: audiograbber 1.83.01
#
DISCID=9607fb0b
DTITLE=Various Artist - Country Favorites Disc 3
DYEAR=1900
DGENRE=
TTITLE0=Daddy's Hands
TTITLE1=Give Me One More Chance
TTITLE2=Takin' It Easy
TTITLE3=I Loved 'Em Every One
TTITLE4=It Ain't Easy Being Easy
TTITLE5=Good Old Boys
TTITLE6=Angel Of The Morning
TTITLE7=You're My Man
TTITLE8=Statue Of A Fool
TTITLE9=It Wasn't God Who Made Honky Tonk Angels
TTITLE10=Touch Me
EXTD=
EXTT0=
EXTT1=
EXTT2=
EXTT3=
EXTT4=
EXTT5=
EXTT6=
EXTT7=
EXTT8=
EXTT9=
EXTT10=
PLAYORDER=
